<svg xmlns="http://www.w3.org/2000/svg" xmlns:xlink="http://www.w3.org/1999/xlink" viewBox="0 0 83.67 83.67"><clipPath id="a"><path d="m0 0h83.67v83.67h-83.67z"></path></clipPath><g clip-path="url(#a)"><path d="m0 19.31h83.67v6.43h-83.67z" fill="#f5f5f5"></path><g clip-path="url(#a)"><path d="m79.3 6.44h-74.93a18.16 18.16 0 0 0 -3.55 6.43h82a18.16 18.16 0 0 0 -3.52-6.43" fill="#f5f5f5"></path><path d="m0 32.18h83.67v6.44h-83.67z" fill="#f5f5f5"></path><path d="m0 45.05h83.67v6.44h-83.67z" fill="#f5f5f5"></path><path d="m0 57.93h83.67v6.44h-83.67z" fill="#f5f5f5"></path><path d="m82.85 70.8h-82.03a18.21 18.21 0 0 0 3.55 6.44h74.93a18.21 18.21 0 0 0 3.55-6.44" fill="#f5f5f5"></path><path d="m65.38 0h-47.07a18.24 18.24 0 0 0 -13.93 6.44h74.93a18.26 18.26 0 0 0 -13.93-6.44" fill="#ff4b55"></path><path d="m0 25.75h83.67v6.44h-83.67z" fill="#ff4b55"></path><path d="m83.67 18.3a18.07 18.07 0 0 0 -.82-5.43h-82.03a18.4 18.4 0 0 0 -.82 5.43v1h83.67z" fill="#ff4b55"></path><path d="m0 38.62h83.67v6.44h-83.67z" fill="#ff4b55"></path><path d="m83.67 65.37v-1h-83.67v1a18.4 18.4 0 0 0 .82 5.43h82a18.07 18.07 0 0 0 .82-5.43" fill="#ff4b55"></path><path d="m79.31 77.24h-74.93a18.28 18.28 0 0 0 13.93 6.43h47.07a18.28 18.28 0 0 0 13.93-6.43" fill="#ff4b55"></path><path d="m0 51.49h83.67v6.44h-83.67z" fill="#ff4b55"></path><path d="m45.05 0h-26.75a18.31 18.31 0 0 0 -18.3 18.3v26.75h45.05z" fill="#41479b"></path><g fill="#f5f5f5"><path d="m4.87 7a.15.15 0 0 0 .22.17l.91-.6.89.64a.15.15 0 0 0 .22-.21l-.33-1 .88-.65a.15.15 0 0 0 -.09-.26h-1.1l-.18-.56a18.23 18.23 0 0 0 -1.35 1.27l.26.2z"></path><path d="m6.12 12.7.35 1h1.1a.15.15 0 0 1 .08.27l-.88.65.33 1.05a.15.15 0 0 1 -.23.16l-.87-.59-.89.64a.15.15 0 0 1 -.23-.16l.33-1.05-.9-.67a.15.15 0 0 1 .09-.27h1.09l.35-1a.15.15 0 0 1 .28 0"></path><path d="m6.12 22.34.35 1h1.1a.14.14 0 0 1 .08.26l-.88.66.33 1a.15.15 0 0 1 -.23.17l-.87-.55-.89.64a.15.15 0 0 1 -.23-.17l.33-1-.88-.66a.14.14 0 0 1 .09-.26h1.07l.35-1a.15.15 0 0 1 .28 0"></path><path d="m6.12 31.19.35 1h1.1a.14.14 0 0 1 .08.26l-.88.66.33 1a.15.15 0 0 1 -.23.17l-.87-.55-.89.64a.15.15 0 0 1 -.23-.17l.33-1-.88-.66a.14.14 0 0 1 .09-.26h1.07l.35-1a.15.15 0 0 1 .28 0"></path><path d="m6.12 39.23.35 1h1.1a.15.15 0 0 1 .08.27l-.88.65.33 1a.15.15 0 0 1 -.23.16l-.87-.53-.89.63a.15.15 0 0 1 -.23-.16l.33-1-.88-.65a.15.15 0 0 1 .09-.27h1.07l.35-1a.15.15 0 0 1 .28 0"></path><path d="m10.35 8.13.35 1h1.1a.15.15 0 0 1 .08.27l-.88.7.33 1.05a.15.15 0 0 1 -.23.16l-.89-.64-.89.64a.15.15 0 0 1 -.23-.16l.33-1.05-.88-.65a.15.15 0 0 1 .09-.27h1.09l.35-1a.15.15 0 0 1 .28 0"></path><path d="m10.35 17.77.35 1h1.1a.15.15 0 0 1 .08.27l-.88.65.33 1a.15.15 0 0 1 -.23.17l-.89-.64-.89.78a.15.15 0 0 1 -.23-.17l.33-1-.88-.65a.15.15 0 0 1 .09-.27h1.09l.35-1a.15.15 0 0 1 .28 0"></path><path d="m10.35 26.92.35 1h1.1a.15.15 0 0 1 .08.27l-.88.65.33 1.05a.15.15 0 0 1 -.23.16l-.89-.63-.89.63a.15.15 0 0 1 -.23-.16l.33-1.05-.88-.65a.15.15 0 0 1 .09-.19h1.09l.35-1a.15.15 0 0 1 .28 0"></path><path d="m10.35 35.13.35 1h1.1a.15.15 0 0 1 .08.27l-.88.7.33 1a.15.15 0 0 1 -.23.17l-.89-.64-.89.64a.15.15 0 0 1 -.23-.17l.33-1-.88-.65a.15.15 0 0 1 .09-.27h1.09l.35-1a.15.15 0 0 1 .28 0"></path><path d="m14.57 4 .35 1h1.08a.15.15 0 0 1 .09.26l-.87.74.33 1a.15.15 0 0 1 -.23.17l-.89-.64-.89.64a.15.15 0 0 1 -.23-.17l.33-1-.88-.66a.14.14 0 0 1 .08-.26h1.1l.35-1a.15.15 0 0 1 .28 0"></path><path d="m14.57 12.7.35 1h1.08a.15.15 0 0 1 .09.27l-.88.65.33 1.05a.15.15 0 0 1 -.23.16l-.89-.64-.89.64a.15.15 0 0 1 -.23-.16l.33-1.05-.87-.62a.15.15 0 0 1 .08-.27h1.1l.35-1a.15.15 0 0 1 .28 0"></path><path d="m14.57 22.34.35 1h1.08a.15.15 0 0 1 .09.26l-.88.66.33 1a.15.15 0 0 1 -.23.17l-.89-.64-.89.64a.15.15 0 0 1 -.23-.17l.33-1-.88-.66a.14.14 0 0 1 .08-.26h1.1l.35-1a.15.15 0 0 1 .28 0"></path><path d="m14.57 31.19.35 1h1.08a.15.15 0 0 1 .09.26l-.88.66.33 1a.15.15 0 0 1 -.23.17l-.89-.64-.89.64a.15.15 0 0 1 -.23-.17l.33-1-.88-.66a.14.14 0 0 1 .08-.26h1.1l.35-1a.15.15 0 0 1 .28 0"></path><path d="m14.57 39.23.35 1h1.08a.15.15 0 0 1 .09.27l-.88.65.33 1a.15.15 0 0 1 -.23.16l-.89-.63-.89.63a.15.15 0 0 1 -.23-.16l.33-1-.88-.65a.15.15 0 0 1 .08-.27h1.1l.35-1a.15.15 0 0 1 .28 0"></path><path d="m18.8 8.13.35 1h1.09a.15.15 0 0 1 .09.27l-.88.65.33 1.05a.15.15 0 0 1 -.23.16l-.89-.64-.89.64a.15.15 0 0 1 -.23-.16l.33-1.05-.87-.6a.15.15 0 0 1 .08-.27h1.1l.35-1a.15.15 0 0 1 .28 0"></path><path d="m18.8 17.77.35 1h1.09a.15.15 0 0 1 .09.27l-.88.65.33 1a.15.15 0 0 1 -.23.17l-.89-.64-.89.64a.15.15 0 0 1 -.23-.17l.33-1-.87-.6a.15.15 0 0 1 .08-.27h1.1l.35-1a.15.15 0 0 1 .28 0"></path><path d="m18.8 26.92.35 1h1.09a.15.15 0 0 1 .09.27l-.88.65.33 1.05a.15.15 0 0 1 -.23.16l-.89-.63-.89.63a.15.15 0 0 1 -.23-.16l.33-1.05-.87-.6a.15.15 0 0 1 .08-.27h1.1l.35-1a.15.15 0 0 1 .28 0"></path><path d="m18.8 35.13.35 1h1.09a.15.15 0 0 1 .09.27l-.88.65.33 1a.15.15 0 0 1 -.23.17l-.89-.64-.89.64a.15.15 0 0 1 -.23-.17l.33-1-.87-.6a.15.15 0 0 1 .08-.27h1.1l.35-1a.15.15 0 0 1 .28 0"></path><path d="m23 4 .35 1h1.09a.14.14 0 0 1 .09.26l-.85.74.32 1a.15.15 0 0 1 -.23.17l-.89-.64-.88.68a.15.15 0 0 1 -.23-.21l.33-1-.88-.66a.14.14 0 0 1 .09-.26h1.09l.35-1a.15.15 0 0 1 .25-.08"></path><path d="m23 12.7.35 1h1.09a.15.15 0 0 1 .09.27l-.88.65.35 1.1a.15.15 0 0 1 -.23.16l-.89-.64-.89.64a.15.15 0 0 1 -.23-.16l.33-1.05-.87-.67a.15.15 0 0 1 .09-.27h1.09l.35-1a.15.15 0 0 1 .28 0"></path><path d="m23 22.34.35 1h1.09a.14.14 0 0 1 .09.26l-.88.66.33 1a.15.15 0 0 1 -.23.17l-.89-.64-.89.64a.15.15 0 0 1 -.23-.17l.33-1-.88-.66a.14.14 0 0 1 .09-.26h1.12l.35-1a.15.15 0 0 1 .28 0"></path><path d="m23 31.19.35 1h1.09a.14.14 0 0 1 .09.26l-.88.66.33 1a.15.15 0 0 1 -.23.17l-.89-.64-.89.64a.15.15 0 0 1 -.23-.17l.33-1-.88-.66a.14.14 0 0 1 .09-.26h1.12l.35-1a.15.15 0 0 1 .28 0"></path><path d="m23 39.23.35 1h1.09a.15.15 0 0 1 .09.27l-.88.65.33 1a.15.15 0 0 1 -.23.16l-.89-.63-.89.63a.15.15 0 0 1 -.23-.16l.33-1-.88-.65a.15.15 0 0 1 .09-.27h1.12l.35-1a.15.15 0 0 1 .28 0"></path><path d="m27.25 8.13.35 1h1.09a.15.15 0 0 1 .09.27l-.88.65.33 1.05a.15.15 0 0 1 -.23.16l-.89-.64-.9.64a.14.14 0 0 1 -.22-.16l.33-1.05-.88-.65a.15.15 0 0 1 .08-.27h1.1l.35-1a.15.15 0 0 1 .28 0"></path><path d="m27.25 17.77.35 1h1.09a.15.15 0 0 1 .09.27l-.88.65.33 1a.15.15 0 0 1 -.23.31l-.89-.64-.9.64a.15.15 0 0 1 -.22-.17l.33-1-.88-.65a.15.15 0 0 1 .08-.27h1.1l.35-1a.15.15 0 0 1 .28 0"></path><path d="m27.25 26.92.35 1h1.09a.15.15 0 0 1 .09.27l-.88.65.33 1.05a.15.15 0 0 1 -.23.16l-.89-.63-.9.63a.14.14 0 0 1 -.22-.16l.33-1.05-.88-.65a.15.15 0 0 1 .08-.27h1.1l.35-1a.15.15 0 0 1 .28 0"></path><path d="m27.25 35.13.35 1h1.09a.15.15 0 0 1 .09.27l-.88.65.33 1a.15.15 0 0 1 -.23.17l-.89-.64-.9.64a.15.15 0 0 1 -.22-.17l.33-1-.88-.65a.15.15 0 0 1 .08-.27h1.1l.35-1a.15.15 0 0 1 .28 0"></path><path d="m31.48 4 .35 1h1.09a.14.14 0 0 1 .09.26l-.88.74.33 1a.15.15 0 0 1 -.23.17l-.89-.64-.89.64a.15.15 0 0 1 -.23-.17l.33-1-.88-.66a.14.14 0 0 1 .08-.26h1.1l.35-1a.15.15 0 0 1 .28 0"></path><path d="m31.48 12.7.35 1h1.09a.15.15 0 0 1 .08.3l-.88.65.33 1.05a.15.15 0 0 1 -.23.16l-.89-.64-.89.64a.15.15 0 0 1 -.23-.16l.33-1.05-.87-.65a.15.15 0 0 1 .08-.27h1.1l.35-1a.15.15 0 0 1 .28 0"></path><path d="m31.48 22.34.35 1h1.09a.14.14 0 0 1 .09.26l-.88.66.33 1a.15.15 0 0 1 -.23.17l-.89-.64-.89.64a.15.15 0 0 1 -.23-.17l.33-1-.88-.66a.14.14 0 0 1 .08-.26h1.1l.35-1a.15.15 0 0 1 .28 0"></path><path d="m31.48 31.19.35 1h1.09a.14.14 0 0 1 .09.26l-.88.66.33 1a.15.15 0 0 1 -.23.17l-.89-.64-.89.64a.15.15 0 0 1 -.23-.17l.33-1-.88-.66a.14.14 0 0 1 .08-.26h1.1l.35-1a.15.15 0 0 1 .28 0"></path><path d="m31.48 39.23.35 1h1.09a.15.15 0 0 1 .09.27l-.88.65.33 1a.15.15 0 0 1 -.23.16l-.89-.63-.89.63a.15.15 0 0 1 -.23-.16l.33-1-.88-.65a.15.15 0 0 1 .08-.27h1.1l.35-1a.15.15 0 0 1 .28 0"></path><path d="m35.71 8.13.35 1h1.1a.15.15 0 0 1 .08.27l-.88.65.33 1.05a.15.15 0 0 1 -.23.16l-.89-.64-.89.64a.15.15 0 0 1 -.23-.16l.33-1.05-.88-.65a.15.15 0 0 1 .1-.22h1.09l.35-1a.15.15 0 0 1 .28 0"></path><path d="m35.71 17.77.35 1h1.1a.15.15 0 0 1 .08.27l-.88.65.33 1a.15.15 0 0 1 -.23.17l-.89-.64-.89.64a.15.15 0 0 1 -.23-.17l.33-1-.88-.65a.15.15 0 0 1 .09-.27h1.09l.35-1a.15.15 0 0 1 .28 0"></path><path d="m35.71 26.92.35 1h1.1a.15.15 0 0 1 .08.27l-.88.65.33 1.05a.15.15 0 0 1 -.23.16l-.89-.63-.89.63a.15.15 0 0 1 -.23-.16l.33-1.05-.88-.65a.15.15 0 0 1 .1-.19h1.09l.35-1a.15.15 0 0 1 .28 0"></path><path d="m35.71 35.13.35 1h1.1a.15.15 0 0 1 .08.27l-.88.65.33 1a.15.15 0 0 1 -.23.17l-.89-.64-.89.64a.15.15 0 0 1 -.23-.17l.33-1-.88-.65a.15.15 0 0 1 .09-.27h1.09l.35-1a.15.15 0 0 1 .28 0"></path><path d="m39.93 4 .34 1h1.1a.15.15 0 0 1 .09.26l-.88.74.33 1a.15.15 0 0 1 -.23.17l-.89-.64-.9.64a.15.15 0 0 1 -.22-.17l.33-1-.88-.66a.14.14 0 0 1 .08-.26h1.1l.35-1a.15.15 0 0 1 .28 0"></path><path d="m39.93 12.7.34 1h1.1a.15.15 0 0 1 .09.27l-.88.65.33 1.05a.15.15 0 0 1 -.23.16l-.89-.64-.9.64a.14.14 0 0 1 -.22-.16l.33-1-.88-.67a.15.15 0 0 1 .08-.27h1.1l.35-1a.15.15 0 0 1 .28 0"></path><path d="m39.93 22.34.34 1h1.1a.15.15 0 0 1 .09.26l-.88.66.33 1a.15.15 0 0 1 -.23.17l-.89-.64-.9.64a.15.15 0 0 1 -.22-.17l.33-1-.88-.66a.14.14 0 0 1 .08-.26h1.1l.35-1a.15.15 0 0 1 .28 0"></path><path d="m39.93 31.19.34 1h1.1a.15.15 0 0 1 .09.26l-.88.66.33 1a.15.15 0 0 1 -.23.17l-.89-.64-.9.64a.15.15 0 0 1 -.22-.17l.33-1-.88-.66a.14.14 0 0 1 .08-.26h1.1l.35-1a.15.15 0 0 1 .28 0"></path><path d="m39.93 39.23.34 1h1.1a.15.15 0 0 1 .09.27l-.88.65.33 1a.15.15 0 0 1 -.23.16l-.89-.63-.9.63a.14.14 0 0 1 -.22-.16l.33-1-.88-.65a.15.15 0 0 1 .08-.27h1.1l.35-1a.15.15 0 0 1 .28 0"></path></g></g></g></svg>