<svg xmlns="http://www.w3.org/2000/svg" xmlns:xlink="http://www.w3.org/1999/xlink" viewBox="0 0 83.67 83.67"><clipPath id="a"><path d="m0 0h83.67v83.67h-83.67z"></path></clipPath><g clip-path="url(#a)"><g clip-path="url(#a)"><path d="m65.37 0h-47.07a18.31 18.31 0 0 0 -18.3 18.3v47.07a18.3 18.3 0 0 0 18.3 18.3h47.07a18.3 18.3 0 0 0 18.3-18.3v-47.07a18.3 18.3 0 0 0 -18.3-18.3" fill="#f5f5f5"></path><path d="m49.84 29.82a14.43 14.43 0 0 0 -20 4 7.21 7.21 0 0 0 12 8 7.21 7.21 0 1 1 12 8 14.44 14.44 0 0 0 -4-20" fill="#ff4b55"></path><path d="m29.84 33.84a7.21 7.21 0 0 0 12 8 7.21 7.21 0 1 1 12 8 14.42 14.42 0 1 1 -24-16" fill="#41479b"></path><g fill="#464655"><path d="m57.18 24.38 2.62 3.94a.71.71 0 0 1 -.2 1l-.66.45a.72.72 0 0 1 -1-.2l-2.63-3.94a.72.72 0 0 1 .2-1l.67-.44a.72.72 0 0 1 1 .2"></path><path d="m61.23 30.46 2.63 3.93a.73.73 0 0 1 -.2 1l-.67.44a.71.71 0 0 1 -1-.2l-2.63-3.93a.74.74 0 0 1 .2-1l.66-.44a.72.72 0 0 1 1 .2"></path><path d="m60 22.51 6.67 10a.72.72 0 0 1 -.2 1l-.67.45a.72.72 0 0 1 -1-.2l-6.68-10a.72.72 0 0 1 .2-1l.68-.45a.73.73 0 0 1 1 .2"></path><path d="m62.78 20.64 2.63 3.95a.72.72 0 0 1 -.2 1l-.67.44a.72.72 0 0 1 -1-.2l-2.63-3.94a.72.72 0 0 1 .2-1l.67-.45a.72.72 0 0 1 1 .2"></path><path d="m66.83 26.73 2.63 3.94a.71.71 0 0 1 -.2 1l-.67.45a.72.72 0 0 1 -1-.2l-2.59-3.92a.72.72 0 0 1 .2-1l.66-.44a.71.71 0 0 1 1 .2"></path><path d="m21.68 48.05 6.68 10a.72.72 0 0 1 -.2 1l-.67.45a.72.72 0 0 1 -1-.2l-6.67-10a.72.72 0 0 1 .2-1l.66-.44a.72.72 0 0 1 1 .2"></path><path d="m18.88 49.91 2.62 3.93a.72.72 0 0 1 -.2 1l-.66.45a.72.72 0 0 1 -1-.2l-2.64-3.93a.71.71 0 0 1 .2-1l.66-.45a.72.72 0 0 1 1 .2"></path><path d="m22.94 56 2.62 3.93a.72.72 0 0 1 -.2 1l-.66.45a.72.72 0 0 1 -1-.2l-2.63-3.94a.72.72 0 0 1 .2-1l.67-.44a.71.71 0 0 1 1 .2"></path><path d="m16.09 51.78 6.66 10a.71.71 0 0 1 -.19 1l-.67.45a.72.72 0 0 1 -1-.2l-6.67-10.03a.72.72 0 0 1 .2-1l.67-.45a.72.72 0 0 1 1 .2"></path><path d="m19.82 34.39 6.67-10a.71.71 0 0 1 1-.2l.67.44a.72.72 0 0 1 .2 1l-6.68 10a.72.72 0 0 1 -1 .2l-.68-.44a.71.71 0 0 1 -.2-1"></path><path d="m17 32.52 6.67-10a.72.72 0 0 1 1-.2l.67.45a.72.72 0 0 1 .2 1l-6.68 10a.71.71 0 0 1 -1 .2l-.67-.45a.71.71 0 0 1 -.2-1"></path><path d="m14.22 30.67 6.67-10a.72.72 0 0 1 1-.2l.67.45a.72.72 0 0 1 .2 1l-6.67 10a.71.71 0 0 1 -1 .2l-.67-.44a.71.71 0 0 1 -.2-1"></path><path d="m55.31 58 2.62-3.93a.74.74 0 0 1 1-.2l.66.45a.72.72 0 0 1 .2 1l-2.62 3.93a.72.72 0 0 1 -1 .2l-.66-.45a.72.72 0 0 1 -.2-1"></path><path d="m59.37 52 2.62-4a.72.72 0 0 1 1-.2l.67.44a.71.71 0 0 1 .2 1l-2.63 4a.73.73 0 0 1 -1 .2l-.66-.44a.73.73 0 0 1 -.2-1"></path><path d="m58.11 59.93 2.63-3.93a.71.71 0 0 1 1-.2l.67.44a.72.72 0 0 1 .2 1l-2.61 3.94a.73.73 0 0 1 -1 .2l-.68-.45a.72.72 0 0 1 -.2-1"></path><path d="m62.17 53.84 2.62-3.93a.72.72 0 0 1 1-.2l.67.45a.71.71 0 0 1 .2 1l-2.66 3.93a.72.72 0 0 1 -1 .2l-.67-.45a.72.72 0 0 1 -.2-1"></path><path d="m60.91 61.79 2.63-3.93a.72.72 0 0 1 1-.2l.66.44a.72.72 0 0 1 .21 1l-2.63 3.9a.72.72 0 0 1 -1 .2l-.67-.45a.72.72 0 0 1 -.2-1"></path><path d="m65 55.72 2.62-3.94a.72.72 0 0 1 1-.2l.66.44a.73.73 0 0 1 .2 1l-2.65 3.98a.72.72 0 0 1 -1 .2l-.66-.44a.71.71 0 0 1 -.2-1"></path></g></g></g></svg>