<svg xmlns="http://www.w3.org/2000/svg" xmlns:xlink="http://www.w3.org/1999/xlink" viewBox="0 0 83.67 83.67"><clipPath id="a"><path d="m0 0h83.67v83.67h-83.67z"></path></clipPath><g clip-path="url(#a)"><g clip-path="url(#a)"><path d="m65.37 0h-47.07a18.31 18.31 0 0 0 -18.3 18.3v47.07a18.3 18.3 0 0 0 18.3 18.3h47.07a18.3 18.3 0 0 0 18.3-18.3v-47.07a18.3 18.3 0 0 0 -18.3-18.3" fill="#ff4b55"></path><g fill="#ffe15a"><path d="m18.63 14.25 2.08 6.24 6.57.05a.88.88 0 0 1 .52 1.59l-5.29 3.87 2 6.26a.89.89 0 0 1 -1.36 1l-5.34-3.82-5.35 3.82a.89.89 0 0 1 -1.36-1l2-6.26-5.32-3.87a.88.88 0 0 1 .52-1.59l6.57-.05 2.13-6.24a.88.88 0 0 1 1.68 0"></path><path d="m42.5 15.78 1.49 2 2.4-.75a.34.34 0 0 1 .38.52l-1.47 2.08 1.46 2.05a.34.34 0 0 1 -.38.52l-2.38-.76-1.51 2a.34.34 0 0 1 -.61-.2v-2.5l-2.39-.81a.34.34 0 0 1 0-.64l2.4-.79v-2.52a.34.34 0 0 1 .61-.2"></path><path d="m33.41 9.72 2.51.27 1.08-2.28a.34.34 0 0 1 .64.07l.51 2.47 2.5.31a.34.34 0 0 1 .13.64l-2.19 1.25.48 2.47a.34.34 0 0 1 -.56.32l-1.87-1.69-2.21 1.21a.34.34 0 0 1 -.47-.43l1.04-2.33-1.84-1.72a.34.34 0 0 1 .27-.59"></path><path d="m37.37 34.16-1.49 2-2.4-.75a.34.34 0 0 0 -.38.52l1.47 2-1.46 2.06a.34.34 0 0 0 .38.52l2.4-.77 1.51 2a.34.34 0 0 0 .61-.21v-2.42l2.39-.8a.34.34 0 0 0 0-.65l-2.4-.79v-2.52a.34.34 0 0 0 -.62-.19"></path><path d="m46.45 28.47-2.5.27-1.07-2.29a.34.34 0 0 0 -.64.08l-.52 2.47-2.5.31a.34.34 0 0 0 -.13.63l2.19 1.25-.48 2.48a.35.35 0 0 0 .57.32l1.86-1.7 2.21 1.22a.34.34 0 0 0 .48-.44l-1-2.29 1.84-1.73a.34.34 0 0 0 -.27-.58"></path></g></g></g></svg>